<svg xmlns="http://www.w3.org/2000/svg" xmlns:xlink="http://www.w3.org/1999/xlink" width="600" zoomAndPan="magnify" viewBox="0 0 450 225" height="300" preserveAspectRatio="xMidYMid meet" version="1.0"><defs><g/></defs><g fill="#ffffff" fill-opacity="1"><g transform="translate(13.683308, 145.466722)"><g><path d="M 15.71875 -68.25 C 20.707031 -72.820312 24.503906 -75.109375 27.109375 -75.109375 C 29.710938 -75.109375 33.507812 -72.820312 38.5 -68.25 C 43.5 -63.6875 46.597656 -59.925781 47.796875 -56.96875 C 48.566406 -54.925781 48.953125 -50.320312 48.953125 -43.15625 L 48.953125 0 L 34.390625 0 L 34.390625 -15.828125 L 19.828125 -15.828125 L 19.828125 0 L 5.28125 0 L 5.28125 -43.15625 C 5.28125 -50.320312 5.664062 -54.925781 6.4375 -56.96875 C 7.632812 -59.925781 10.726562 -63.6875 15.71875 -68.25 Z M 19.828125 -43.15625 L 19.828125 -28.484375 L 34.390625 -28.484375 L 34.390625 -43.15625 C 34.390625 -48.914062 34.109375 -52.445312 33.546875 -53.75 C 32.984375 -55.050781 32.015625 -56.421875 30.640625 -57.859375 C 29.273438 -59.304688 28.097656 -60.03125 27.109375 -60.03125 C 26.128906 -60.03125 24.953125 -59.304688 23.578125 -57.859375 C 22.203125 -56.421875 21.234375 -55.050781 20.671875 -53.75 C 20.109375 -52.445312 19.828125 -48.914062 19.828125 -43.15625 Z M 19.828125 -43.15625 "/></g></g></g><g fill="#ffffff" fill-opacity="1"><g transform="translate(67.907066, 145.466722)"><g><path d="M 21.515625 -16.078125 C 22.015625 -15.203125 23.019531 -14.289062 24.53125 -13.34375 C 26.039062 -12.394531 27.304688 -11.921875 28.328125 -11.921875 C 29.347656 -11.921875 30.628906 -13.222656 32.171875 -15.828125 C 33.085938 -17.441406 33.546875 -21.640625 33.546875 -28.421875 C 33.546875 -35.210938 33.085938 -39.421875 32.171875 -41.046875 C 31.753906 -41.816406 31.140625 -42.65625 30.328125 -43.5625 C 29.523438 -44.476562 28.753906 -44.9375 28.015625 -44.9375 C 27.273438 -44.9375 26.128906 -44.460938 24.578125 -43.515625 C 23.035156 -42.566406 22.015625 -41.671875 21.515625 -40.828125 C 21.023438 -39.984375 20.78125 -35.867188 20.78125 -28.484375 C 20.78125 -21.097656 21.023438 -16.960938 21.515625 -16.078125 Z M 45.578125 -13.390625 C 44.660156 -11.078125 42.320312 -8.054688 38.5625 -4.328125 C 34.800781 -0.597656 31.96875 1.265625 30.0625 1.265625 C 28.164062 1.265625 25.070312 -0.632812 20.78125 -4.4375 L 20.78125 4.75 C 20.78125 8.332031 21.203125 11.109375 22.046875 13.078125 C 22.890625 15.046875 24.226562 16.769531 26.0625 18.25 L 14.453125 26.375 C 9.390625 22.363281 6.859375 16.664062 6.859375 9.28125 L 6.859375 -35.546875 C 6.859375 -42.234375 5.097656 -47.050781 1.578125 -50 L 13.1875 -58.125 C 15.15625 -56.507812 16.984375 -53.976562 18.671875 -50.53125 C 24.160156 -55.59375 28.066406 -58.125 30.390625 -58.125 C 32.078125 -58.125 34.800781 -56.257812 38.5625 -52.53125 C 42.320312 -48.8125 44.660156 -45.789062 45.578125 -43.46875 C 46.492188 -41.144531 46.953125 -36.128906 46.953125 -28.421875 C 46.953125 -20.722656 46.492188 -15.710938 45.578125 -13.390625 Z M 45.578125 -13.390625 "/></g></g></g><g fill="#ffffff" fill-opacity="1"><g transform="translate(118.016573, 145.466722)"><g><path d="M 20.296875 -12.4375 C 21.390625 -11.382812 22.253906 -10.859375 22.890625 -10.859375 C 23.523438 -10.859375 24.382812 -11.382812 25.46875 -12.4375 C 26.5625 -13.5 27.359375 -14.453125 27.859375 -15.296875 C 28.765625 -16.847656 29.21875 -21.207031 29.21875 -28.375 C 29.21875 -35.550781 28.765625 -39.945312 27.859375 -41.5625 C 27.359375 -42.40625 26.5625 -43.351562 25.46875 -44.40625 C 24.382812 -45.46875 23.523438 -46 22.890625 -46 C 22.253906 -46 21.390625 -45.46875 20.296875 -44.40625 C 19.210938 -43.351562 18.425781 -42.40625 17.9375 -41.5625 C 17.019531 -40.019531 16.5625 -35.660156 16.5625 -28.484375 C 16.5625 -21.304688 17.019531 -16.910156 17.9375 -15.296875 C 18.425781 -14.453125 19.210938 -13.5 20.296875 -12.4375 Z M 32.4375 -3.90625 C 28.113281 -0.457031 24.929688 1.265625 22.890625 1.265625 C 20.847656 1.265625 17.664062 -0.457031 13.34375 -3.90625 C 9.019531 -7.351562 6.363281 -9.921875 5.375 -11.609375 C 3.90625 -14.210938 3.171875 -19.835938 3.171875 -28.484375 C 3.171875 -37.140625 3.90625 -42.734375 5.375 -45.265625 C 6.363281 -46.953125 9.019531 -49.515625 13.34375 -52.953125 C 17.664062 -56.398438 20.847656 -58.125 22.890625 -58.125 C 24.929688 -58.125 28.113281 -56.398438 32.4375 -52.953125 C 36.757812 -49.515625 39.414062 -46.953125 40.40625 -45.265625 C 41.882812 -42.734375 42.625 -37.140625 42.625 -28.484375 C 42.625 -19.835938 41.882812 -14.210938 40.40625 -11.609375 C 39.414062 -9.921875 36.757812 -7.351562 32.4375 -3.90625 Z M 32.4375 -3.90625 "/></g></g></g><g fill="#ffffff" fill-opacity="1"><g transform="translate(163.800858, 145.466722)"><g><path d="M 5.375 -11.609375 C 3.90625 -13.929688 3.171875 -19.519531 3.171875 -28.375 C 3.171875 -37.238281 3.90625 -42.867188 5.375 -45.265625 C 6.4375 -47.015625 9.039062 -49.59375 13.1875 -53 C 17.332031 -56.414062 20.546875 -58.125 22.828125 -58.125 C 25.117188 -58.125 28.21875 -56.769531 32.125 -54.0625 C 36.03125 -51.351562 38.96875 -48.28125 40.9375 -44.84375 L 30.0625 -37.34375 C 29.15625 -39.03125 27.910156 -40.894531 26.328125 -42.9375 C 24.742188 -44.976562 23.5625 -46 22.78125 -46 C 21.375 -46 19.757812 -44.519531 17.9375 -41.5625 C 17.019531 -39.738281 16.5625 -35.363281 16.5625 -28.4375 C 16.5625 -21.507812 17.019531 -17.128906 17.9375 -15.296875 C 18.5 -14.378906 19.234375 -13.410156 20.140625 -12.390625 C 21.054688 -11.367188 21.972656 -10.859375 22.890625 -10.859375 C 23.804688 -10.859375 25.003906 -11.664062 26.484375 -13.28125 C 27.960938 -14.90625 29.15625 -16.984375 30.0625 -19.515625 L 40.9375 -11.921875 C 39.03125 -8.398438 36.125 -5.320312 32.21875 -2.6875 C 28.320312 -0.0507812 25.210938 1.265625 22.890625 1.265625 C 20.566406 1.265625 17.332031 -0.4375 13.1875 -3.84375 C 9.039062 -7.257812 6.4375 -9.847656 5.375 -11.609375 Z M 5.375 -11.609375 "/></g></g></g><g fill="#ffffff" fill-opacity="1"><g transform="translate(205.892836, 145.466722)"><g><path d="M 43.25 -56.859375 L 43.25 -13.609375 C 43.675781 -11.148438 45.332031 -8.96875 48.21875 -7.0625 L 38.71875 1.0625 C 37.800781 0.425781 36.675781 -0.695312 35.34375 -2.3125 C 34.007812 -3.9375 32.882812 -5.59375 31.96875 -7.28125 C 26.125 -1.582031 22.046875 1.265625 19.734375 1.265625 C 18.046875 1.265625 15.316406 -0.597656 11.546875 -4.328125 C 7.785156 -8.054688 5.445312 -11.078125 4.53125 -13.390625 C 3.625 -15.710938 3.171875 -20.722656 3.171875 -28.421875 C 3.171875 -36.128906 3.625 -41.144531 4.53125 -43.46875 C 5.445312 -45.789062 7.785156 -48.8125 11.546875 -52.53125 C 15.316406 -56.257812 18.046875 -58.125 19.734375 -58.125 C 22.191406 -58.125 26.164062 -55.59375 31.65625 -50.53125 L 32.921875 -56.859375 Z M 28.59375 -40.765625 C 28.101562 -41.648438 27.097656 -42.566406 25.578125 -43.515625 C 24.066406 -44.460938 22.925781 -44.9375 22.15625 -44.9375 C 21.382812 -44.9375 20.554688 -44.476562 19.671875 -43.5625 C 18.796875 -42.65625 18.21875 -41.816406 17.9375 -41.046875 C 17.019531 -39.773438 16.5625 -35.566406 16.5625 -28.421875 C 16.5625 -21.285156 17.019531 -17.085938 17.9375 -15.828125 C 18.21875 -15.117188 18.796875 -14.289062 19.671875 -13.34375 C 20.554688 -12.394531 21.382812 -11.921875 22.15625 -11.921875 C 22.925781 -11.921875 24.066406 -12.394531 25.578125 -13.34375 C 27.097656 -14.289062 28.082031 -15.148438 28.53125 -15.921875 C 28.988281 -16.703125 29.253906 -20.820312 29.328125 -28.28125 C 29.328125 -35.726562 29.082031 -39.890625 28.59375 -40.765625 Z M 28.59375 -40.765625 "/></g></g></g><g fill="#ffffff" fill-opacity="1"><g transform="translate(255.685885, 145.466722)"><g><path d="M 3.6875 -79.125 L 17.625 -79.125 L 17.625 -20.359375 C 17.625 -16.773438 18.046875 -14 18.890625 -12.03125 C 19.734375 -10.0625 21.066406 -8.335938 22.890625 -6.859375 L 11.28125 1.265625 C 6.21875 -2.742188 3.6875 -8.441406 3.6875 -15.828125 Z M 3.6875 -79.125 "/></g></g></g><g fill="#ffffff" fill-opacity="1"><g transform="translate(280.160416, 145.466722)"><g><path d="M 4.21875 -56.859375 L 18.140625 -56.859375 L 18.140625 -20.359375 C 18.140625 -16.773438 18.5625 -14 19.40625 -12.03125 C 20.25 -10.0625 21.585938 -8.335938 23.421875 -6.859375 L 11.8125 1.265625 C 6.75 -2.742188 4.21875 -8.441406 4.21875 -15.828125 Z M 11.4375 -78.90625 C 12.175781 -78.90625 13.882812 -77.765625 16.5625 -75.484375 C 19.238281 -73.203125 20.578125 -71.65625 20.578125 -70.84375 C 20.578125 -70.03125 19.222656 -68.460938 16.515625 -66.140625 C 13.804688 -63.828125 12.082031 -62.671875 11.34375 -62.671875 C 10.601562 -62.671875 8.894531 -63.8125 6.21875 -66.09375 C 3.550781 -68.382812 2.21875 -69.929688 2.21875 -70.734375 C 2.21875 -71.546875 3.570312 -73.109375 6.28125 -75.421875 C 8.988281 -77.742188 10.707031 -78.90625 11.4375 -78.90625 Z M 11.4375 -78.90625 "/></g></g></g><g fill="#ffffff" fill-opacity="1"><g transform="translate(303.580038, 145.466722)"><g><path d="M 1.578125 -41.671875 L 1.578125 -49.578125 L 6.859375 -50.84375 C 6.859375 -58.726562 7.242188 -63.546875 8.015625 -65.296875 C 8.785156 -67.054688 11.457031 -69.800781 16.03125 -73.53125 C 20.601562 -77.257812 23.960938 -79.125 26.109375 -79.125 C 28.253906 -79.125 30.941406 -78.117188 34.171875 -76.109375 C 37.410156 -74.109375 39.84375 -71.804688 41.46875 -69.203125 L 31.125 -62.25 C 29.15625 -65.414062 27.46875 -67 26.0625 -67 C 25.351562 -67 24.539062 -66.539062 23.625 -65.625 C 22.71875 -64.707031 22.015625 -63.753906 21.515625 -62.765625 C 21.023438 -61.785156 20.78125 -58.445312 20.78125 -52.75 L 35.765625 -52.75 L 35.765625 -41.671875 L 20.78125 -41.671875 L 20.78125 0 L 6.859375 0 L 6.859375 -41.671875 Z M 1.578125 -41.671875 "/></g></g></g><g fill="#ffffff" fill-opacity="1"><g transform="translate(340.291835, 145.466722)"><g><path d="M 3.6875 -79.125 L 17.625 -79.125 L 17.625 -20.359375 C 17.625 -16.773438 18.046875 -14 18.890625 -12.03125 C 19.734375 -10.0625 21.066406 -8.335938 22.890625 -6.859375 L 11.28125 1.265625 C 6.21875 -2.742188 3.6875 -8.441406 3.6875 -15.828125 Z M 3.6875 -79.125 "/></g></g></g><g fill="#ffffff" fill-opacity="1"><g transform="translate(364.766366, 145.466722)"><g><path d="M 4.21875 -56.859375 L 18.140625 -56.859375 L 18.140625 -20.359375 C 18.140625 -16.773438 18.5625 -14 19.40625 -12.03125 C 20.25 -10.0625 21.585938 -8.335938 23.421875 -6.859375 L 11.8125 1.265625 C 6.75 -2.742188 4.21875 -8.441406 4.21875 -15.828125 Z M 11.4375 -78.90625 C 12.175781 -78.90625 13.882812 -77.765625 16.5625 -75.484375 C 19.238281 -73.203125 20.578125 -71.65625 20.578125 -70.84375 C 20.578125 -70.03125 19.222656 -68.460938 16.515625 -66.140625 C 13.804688 -63.828125 12.082031 -62.671875 11.34375 -62.671875 C 10.601562 -62.671875 8.894531 -63.8125 6.21875 -66.09375 C 3.550781 -68.382812 2.21875 -69.929688 2.21875 -70.734375 C 2.21875 -71.546875 3.570312 -73.109375 6.28125 -75.421875 C 8.988281 -77.742188 10.707031 -78.90625 11.4375 -78.90625 Z M 11.4375 -78.90625 "/></g></g></g><g fill="#ffffff" fill-opacity="1"><g transform="translate(388.185988, 145.466722)"><g><path d="M 17.625 0 L 3.6875 0 L 3.6875 -5.375 C 3.6875 -12.132812 4.160156 -16.742188 5.109375 -19.203125 C 6.066406 -21.660156 9.144531 -25.5625 14.34375 -30.90625 C 9.5625 -36.394531 6.675781 -40.332031 5.6875 -42.71875 C 4.707031 -45.113281 4.21875 -49.09375 4.21875 -54.65625 L 4.21875 -56.859375 L 18.140625 -56.859375 L 18.140625 -54.65625 C 18.140625 -50.78125 18.421875 -48.050781 18.984375 -46.46875 C 19.546875 -44.882812 20.425781 -43.035156 21.625 -40.921875 C 22.820312 -38.816406 23.628906 -37.765625 24.046875 -37.765625 C 24.472656 -37.765625 25.285156 -38.816406 26.484375 -40.921875 C 27.679688 -43.035156 28.5625 -44.882812 29.125 -46.46875 C 29.6875 -48.050781 29.96875 -50.78125 29.96875 -54.65625 L 29.96875 -56.859375 L 43.890625 -56.859375 L 43.890625 -54.65625 C 43.890625 -49.09375 43.503906 -45.398438 42.734375 -43.578125 C 41.179688 -40.191406 38.15625 -35.96875 33.65625 -30.90625 C 35.832031 -28.726562 37.851562 -26.425781 39.71875 -24 C 41.582031 -21.570312 42.832031 -19.550781 43.46875 -17.9375 C 44.101562 -16.320312 44.421875 -12.132812 44.421875 -5.375 L 44.421875 0 L 30.484375 0 L 30.484375 -5.375 C 30.484375 -10.65625 30.203125 -14.035156 29.640625 -15.515625 C 29.148438 -16.984375 28.21875 -18.6875 26.84375 -20.625 C 25.476562 -22.5625 24.53125 -23.53125 24 -23.53125 C 23.46875 -23.53125 22.535156 -22.546875 21.203125 -20.578125 C 19.867188 -18.609375 18.9375 -16.898438 18.40625 -15.453125 C 17.882812 -14.015625 17.625 -10.65625 17.625 -5.375 Z M 17.625 0 "/></g></g></g></svg>